PathFileType	4	(X/Y/Z)	SUBJ32_1_walk_RCNL2025.trc
DataRate	CameraRate	NumFrames	NumMarkers	Units	OrigDataRate	OrigDataStartFrame	OrigNumFrames
100	100	12	25	mm	100	1	331
Frame#	Time	R_Shoulder			L_Shoulder			C7			J_Notch			R_Elbow			L_Elbow			R_Wrist			L_Wrist			R_Asis			L_Asis			Sacral			Thoracic			Sternum			R_Thigh_Lateral			R_Knee_Lateral			R_Shank_Lateral			R_Ankle_Lateral			R_Heel			R_Toe			L_Thigh_Lateral			L_Knee_Lateral			L_Shank_Lateral			L_Ankle_Lateral			L_Heel			L_Toe		
		X1	Y1	Z1	X2	Y2	Z2	X3	Y3	Z3	X4	Y4	Z4	X5	Y5	Z5	X6	Y6	Z6	X7	Y7	Z7	X8	Y8	Z8	X9	Y9	Z9	X10	Y10	Z10	X11	Y11	Z11	X12	Y12	Z12	X13	Y13	Z13	X14	Y14	Z14	X15	Y15	Z15	X16	Y16	Z16	X17	Y17	Z17	X18	Y18	Z18	X19	Y19	Z19	X20	Y20	Z20	X21	Y21	Z21	X22	Y22	Z22	X23	Y23	Z23	X24	Y24	Z24	X25	Y25	Z25
1	0.00000000	-1232.117310	1353.928223	8.084909	-1250.160400	1369.712402	-363.230011	-1282.647095	1431.966431	-162.479080	-1149.892578	1339.802490	-180.268433	-1298.404663	1022.172546	97.591087	-1308.175293	1061.179443	-481.133209	-1227.482849	781.037354	104.844700	-1207.241760	824.590698	-518.183121	-1170.468384	907.180176	-77.162651	-1186.766602	894.231323	-328.185669	-1376.680420	947.669006	-190.316147	-1374.597534	1207.187378	-177.312164	-1086.454468	1109.560791	-194.161392	-1220.859863	543.404785	-2.165041	-1208.170410	448.205017	-45.969372	-1210.396851	287.190674	17.140547	-1233.362671	67.358696	-94.322083	-1287.832031	57.890625	-143.939743	-1104.005615	50.435062	-130.428711	-1220.394043	560.312866	-443.574493	-1207.514648	468.751617	-408.485016	-1351.251343	308.345184	-427.366547	-1503.486572	201.906555	-334.102051	-1540.590332	236.216522	-287.520416	-1437.084961	88.114685	-305.372437
2	0.01000000	-1221.575562	1355.649414	8.276516	-1240.557373	1370.519897	-363.240387	-1272.057251	1433.349731	-162.483917	-1139.436279	1341.160400	-180.163971	-1284.910767	1023.532349	98.746742	-1302.087891	1061.565308	-479.152130	-1210.323059	783.710693	105.148472	-1205.283386	823.195984	-515.665375	-1161.123901	908.312744	-76.350334	-1174.732788	896.185486	-327.370483	-1366.326904	949.104858	-190.906555	-1364.142700	1208.541504	-176.857040	-1076.100708	1111.021851	-193.490479	-1217.479370	543.856201	-2.146823	-1206.266968	448.330078	-46.026546	-1210.185303	287.255432	17.124516	-1233.347412	67.262466	-94.577049	-1287.789429	57.815445	-144.293854	-1104.079468	50.435326	-130.328995	-1202.158936	563.194397	-443.350555	-1186.981079	472.113586	-408.179565	-1328.092407	309.852448	-426.549530	-1477.616943	198.794922	-333.148621	-1516.277588	231.107178	-286.075775	-1404.867432	89.013618	-305.556519
3	0.02000000	-1211.061157	1357.226929	8.378143	-1230.919067	1371.169434	-363.313812	-1261.471558	1434.564941	-162.581558	-1128.993042	1342.327148	-180.108139	-1271.555176	1024.830933	99.845406	-1295.992310	1061.854126	-477.111176	-1193.222351	786.411407	105.453613	-1203.495117	821.747955	-513.133865	-1151.725464	909.295776	-75.527924	-1162.652832	897.967041	-326.539093	-1355.998047	950.371033	-191.514389	-1353.714966	1209.725952	-176.497253	-1065.804932	1112.297729	-192.817444	-1214.083374	544.284241	-2.184475	-1204.377930	448.472351	-46.150593	-1209.989624	287.342072	17.058239	-1233.339355	67.201614	-94.843445	-1287.723145	57.721420	-144.701279	-1104.136841	50.420250	-130.259125	-1184.112427	566.023010	-443.107208	-1166.868652	475.431854	-407.757019	-1304.705078	310.715759	-425.743469	-1451.015869	194.605408	-332.134216	-1491.201904	224.706085	-284.504150	-1371.974609	89.190056	-305.650177
4	0.03000000	-1200.557129	1358.627319	8.391647	-1221.230225	1371.639282	-363.443298	-1250.886597	1435.591553	-162.753571	-1118.563843	1343.281372	-180.102814	-1258.329224	1026.025635	100.890984	-1289.873779	1062.031616	-475.026611	-1176.190857	789.096649	105.757050	-1201.835327	820.225067	-510.587631	-1142.245239	910.111389	-74.697067	-1150.718140	899.500854	-325.700592	-1345.689087	951.446899	-192.129456	-1343.311401	1210.722046	-176.227615	-1055.549927	1113.354614	-192.137146	-1210.595947	544.701355	-2.246180	-1202.421997	448.618469	-46.320229	-1209.669189	287.446411	16.956514	-1233.336182	67.174118	-95.112610	-1287.644043	57.636150	-145.132172	-1104.173706	50.382286	-130.221817	-1166.304565	568.740662	-442.835754	-1147.174316	478.639252	-407.217834	-1281.050903	310.843231	-424.942535	-1423.661377	189.486176	-331.080078	-1465.273560	217.208817	-282.849884	-1338.554199	88.694427	-305.763947
5	0.04000000	-1190.052490	1359.822021	8.318573	-1211.479736	1371.910034	-363.624603	-1240.300659	1436.411377	-162.987473	-1108.145020	1344.006592	-180.150513	-1245.225830	1027.076050	101.889412	-1283.719116	1062.084961	-472.917084	-1159.233948	791.724701	106.054127	-1200.254517	818.615051	-508.022491	-1132.690674	910.749939	-73.858437	-1139.026123	900.737793	-324.868256	-1335.396240	952.316956	-192.744751	-1332.929077	1211.516479	-176.046326	-1045.318237	1114.162964	-191.447037	-1206.960693	545.106750	-2.307222	-1200.337280	448.754089	-46.515606	-1209.124390	287.561035	16.833153	-1233.333374	67.173515	-95.380600	-1287.561890	57.590397	-145.556107	-1104.187744	50.315647	-130.218063	-1148.773193	571.292053	-442.530151	-1127.883789	481.677948	-406.567261	-1257.119629	310.214905	-424.139709	-1395.544678	183.560013	-330.010010	-1438.419189	208.788132	-281.157288	-1304.691895	87.598526	-305.982025
6	0.05000000	-1179.540649	1360.788818	8.161268	-1201.660400	1371.967529	-363.855347	-1229.712646	1437.009521	-163.276855	-1097.729858	1344.491211	-180.252899	-1232.240479	1027.951416	102.848328	-1277.513062	1062.003540	-470.801666	-1142.355835	794.258759	106.340839	-1198.701721	816.916077	-505.435181	-1123.104736	911.209595	-73.008125	-1127.593872	901.653748	-324.063324	-1325.117188	952.970947	-193.353699	-1322.563721	1212.101440	-175.955078	-1035.095581	1114.700195	-190.747604	-1203.139038	545.489380	-2.351770	-1198.084717	448.868011	-46.720657	-1208.311646	287.676208	16.697477	-1233.328613	67.193863	-95.646828	-1287.482300	57.608269	-145.951859	-1104.182373	50.219349	-130.243103	-1131.541504	573.629028	-442.187317	-1108.980347	484.499664	-405.814972	-1232.935303	308.876404	-423.329865	-1366.666870	176.926315	-328.951538	-1410.603882	199.580109	-279.466583	-1270.425293	85.991982	-306.363281
7	0.06000000	-1169.020508	1361.513306	7.924555	-1191.768799	1371.802979	-364.134399	-1219.120850	1437.375610	-163.620102	-1087.308716	1344.728149	-180.411240	-1219.366699	1028.633545	103.775436	-1271.239502	1061.779297	-468.699768	-1125.562134	796.669281	106.614403	-1197.129517	815.132263	-502.825150	-1113.565308	911.492371	-72.135445	-1116.397095	902.241638	-323.311279	-1314.849365	953.403076	-193.949615	-1312.207886	1212.473267	-175.958206	-1024.871704	1114.951416	-190.044220	-1199.104980	545.831360	-2.372947	-1195.645630	448.952515	-46.925091	-1207.244995	287.781769	16.553658	-1233.320557	67.229950	-95.914413	-1287.404907	57.700356	-146.313431	-1104.168579	50.100346	-130.283661	-1114.621338	575.713745	-441.806396	-1090.454712	487.066101	-404.973419	-1208.553223	306.923492	-422.509766	-1337.033325	169.672424	-327.935913	-1381.824219	189.695343	-277.819824	-1235.763672	83.976540	-306.944305
8	0.07000000	-1158.493896	1361.989868	7.615721	-1181.803101	1371.412354	-364.461578	-1208.520874	1437.505493	-164.019058	-1076.870239	1344.714722	-180.628738	-1206.591797	1029.115723	104.677422	-1264.881714	1061.407715	-466.631409	-1108.858582	798.933655	106.871525	-1195.496521	813.270050	-500.196274	-1104.183716	911.596008	-71.225418	-1105.397949	902.505981	-322.637085	-1304.588989	953.611023	-194.526886	-1301.851196	1212.630615	-176.059586	-1014.639771	1114.910400	-189.349411	-1194.841064	546.111572	-2.371376	-1193.011963	449.000427	-47.125679	-1205.977661	287.868103	16.402126	-1233.307739	67.277122	-96.188995	-1287.324219	57.860886	-146.651245	-1104.159180	49.973297	-130.322021	-1098.018799	577.515808	-441.389618	-1072.315186	489.347290	-404.056091	-1184.047119	304.477997	-421.681000	-1306.649902	161.885056	-326.997498	-1352.092651	179.234375	-276.265381	-1200.708984	81.659149	-307.742096
9	0.08000000	-1147.961304	1362.221924	7.242307	-1171.762695	1370.795288	-364.837402	-1197.904541	1437.399170	-164.478302	-1066.402588	1344.452759	-180.910736	-1193.896973	1029.397461	105.558273	-1258.424194	1060.886841	-464.616547	-1092.253174	801.035706	107.108742	-1193.767700	811.335724	-497.558395	-1095.086060	911.508179	-70.264534	-1094.555298	902.458496	-322.060638	-1294.330444	953.595154	-195.082245	-1291.481323	1212.575439	-176.258987	-1004.393433	1114.579956	-188.683304	-1190.337280	546.309692	-2.351519	-1190.177856	449.003571	-47.325195	-1204.566528	287.925171	16.241245	-1233.288330	67.332718	-96.475395	-1287.232056	58.071163	-146.986404	-1104.164429	49.854328	-130.343262	-1081.740845	579.008118	-440.943237	-1054.591553	491.317932	-403.074829	-1159.494019	301.661255	-420.853516	-1275.519653	153.659073	-326.171875	-1321.427856	168.300888	-274.856781	-1165.271118	79.146736	-308.757141
10	0.09000000	-1137.419067	1362.220093	6.809925	-1161.645996	1369.955444	-365.263214	-1187.260376	1437.060425	-165.003754	-1055.894897	1343.948730	-181.261978	-1181.259766	1029.480469	106.417244	-1251.852173	1060.216797	-462.673584	-1075.758850	802.967621	107.325375	-1191.913940	809.335999	-494.926529	-1086.354370	911.213074	-69.242775	-1083.829102	902.116028	-321.594330	-1284.066528	953.358582	-195.615601	-1281.085938	1212.313354	-176.550415	-994.126831	1113.970703	-188.071594	-1185.590942	546.409180	-2.319827	-1187.135254	448.953918	-47.529148	-1203.040771	287.941040	16.068348	-1233.260498	67.396904	-96.775108	-1287.124878	58.310455	-147.339035	-1104.186646	49.752628	-130.340942	-1065.799194	580.168213	-440.475647	-1037.331787	492.955261	-402.037109	-1134.962891	298.574982	-420.045319	-1243.643921	145.103455	-325.493378	-1289.850708	157.013489	-273.646393	-1129.467896	76.542336	-309.972260
11	0.10000000	-1126.857788	1361.999023	6.322001	-1151.451294	1368.900635	-365.741730	-1176.575928	1436.497681	-165.600281	-1045.337036	1343.213135	-181.684662	-1168.661133	1029.369995	107.248940	-1245.153198	1059.399902	-460.816437	-1059.395508	804.731201	107.524513	-1189.912354	807.281006	-492.319183	-1077.956421	910.706543	-68.150742	-1073.183105	901.498962	-321.243988	-1273.790527	952.906921	-196.130081	-1270.653809	1211.853394	-176.922577	-983.833435	1113.100342	-187.541687	-1180.604248	546.396667	-2.285347	-1183.872192	448.845581	-47.742630	-1201.390259	287.904572	15.880493	-1233.221069	67.471176	-97.086533	-1287.006470	58.568008	-147.719086	-1104.216064	49.667553	-130.319565	-1050.213379	580.979492	-439.993958	-1020.596558	494.238342	-400.945801	-1110.512939	295.295563	-419.278778	-1211.025879	136.345306	-324.992249	-1257.382202	145.512665	-272.678040	-1093.313477	73.943741	-311.348602
12	0.11000000	-1116.261719	1361.575562	5.780688	-1141.177490	1367.644165	-366.275543	-1165.839111	1435.723755	-166.269897	-1034.721191	1342.260742	-182.179947	-1156.091919	1029.078003	108.045334	-1238.316284	1058.441772	-459.053650	-1043.187561	806.336884	107.710873	-1187.744202	805.185944	-489.755997	-1069.734985	910.001770	-66.987625	-1062.585205	900.628601	-321.010468	-1263.496704	952.248962	-196.632538	-1260.175171	1211.206543	-177.360031	-973.505066	1111.992554	-187.119217	-1175.381958	546.262878	-2.259891	-1180.372681	448.674988	-47.969761	-1199.577026	287.810730	15.674985	-1233.164185	67.556442	-97.406593	-1286.881958	58.845963	-148.126190	-1104.233154	49.592876	-130.291382	-1035.012817	581.428833	-439.501953	-1004.453491	495.146942	-399.801270	-1086.198242	291.879425	-418.576630	-1177.676880	127.531303	-324.692535	-1224.045654	133.961197	-271.982239	-1056.814941	71.447052	-312.829956
